<svg xmlns="http://www.w3.org/2000/svg" width="13.342" height="15.987" viewBox="0 0 13.342 15.987">
    <path fill="#33C7FD" fill-rule="evenodd" d="M9.747 4.469a4.22 4.22 0 0 1-.683 1.273c-.294.37-.649.668-1.064.893-.415.225-.87.337-1.366.337H4.082V8H8v2H4.082v1.983H1.987V10H0V8h1.987V7H0V5h1.987V.017h4.571c.496 0 .954.116 1.374.346.42.23.782.534 1.086.91a4.4 4.4 0 0 1 .714 1.281c.172.477.258-.042.258.441 0 .505-.081.997-.243 1.474zM7.742 2.177c-.081-.241-.187.554-.319.385a1.285 1.285 0 0 0-1.002-.505H4.082v2.876h2.43c.385 0 .706-.174.965-.523.258-.348.387-.82.387-1.415 0-.304-.041-.576-.122-.818z"/>
</svg>
